<svg width="100" height="100" viewBox="0 0 100 100" fill="none" xmlns="http://www.w3.org/2000/svg">
<g id="hiring-process1.svg" clip-path="url(#clip0_140_889)">
<g id="Clip path group">
<mask id="mask0_140_889" style="mask-type:luminance" maskUnits="userSpaceOnUse" x="0" y="-1" width="100" height="101">
<g id="clip0_627_3705">
<path id="Vector" d="M100 -0.0100098H0V99.99H100V-0.0100098Z" fill="white"/>
</g>
</mask>
<g mask="url(#mask0_140_889)">
<g id="Group">
<path id="Vector_2" d="M21.875 29.6775C21.875 24.2903 24.0151 19.1237 27.8244 15.3144C31.6337 11.5051 36.8003 9.36499 42.1875 9.36499C47.5747 9.36499 52.7413 11.5051 56.5506 15.3144C60.3599 19.1237 62.5 24.2903 62.5 29.6775" stroke="#146C94" stroke-width="1.4" stroke-linecap="round" stroke-linejoin="round"/>
<path id="Vector_3" d="M25.0015 87.49L13.5483 67.9588C12.5287 66.1653 12.2598 64.0414 12.8003 62.0504C13.3408 60.0595 14.6469 58.3631 16.4335 57.3316C18.2202 56.3001 20.3423 56.0171 22.3368 56.5444C24.3313 57.0717 26.0362 58.3665 27.0796 60.1462L34.3765 71.865V29.6775C34.3765 27.6055 35.1996 25.6184 36.6647 24.1532C38.1298 22.6881 40.117 21.865 42.189 21.865C44.261 21.865 46.2481 22.6881 47.7132 24.1532C49.1784 25.6184 50.0015 27.6055 50.0015 29.6775V51.5525C50.0015 49.4805 50.8246 47.4934 52.2897 46.0282C53.7548 44.5631 55.742 43.74 57.814 43.74C59.886 43.74 61.8731 44.5631 63.3383 46.0282C64.8034 47.4934 65.6265 49.4805 65.6265 51.5525V57.8025C65.6265 55.7305 66.4496 53.7434 67.9147 52.2782C69.3798 50.8131 71.367 49.99 73.439 49.99C75.511 49.99 77.4981 50.8131 78.9633 52.2782C80.4284 53.7434 81.2515 55.7305 81.2515 57.8025V71.865C81.2515 81.24 78.1265 87.49 78.1265 87.49" stroke="#146C94" stroke-width="1.4" stroke-linecap="round" stroke-linejoin="round"/>
</g>
</g>
</g>
</g>
<defs>
<clipPath id="clip0_140_889">
<rect width="100" height="100" fill="white" transform="translate(0 -0.0100098)"/>
</clipPath>
</defs>
</svg>
