<svg width="100" height="100" viewBox="0 0 100 100" fill="none" xmlns="http://www.w3.org/2000/svg">
<g id="hiring-process4.svg" clip-path="url(#clip0_140_930)">
<g id="Clip path group">
<mask id="mask0_140_930" style="mask-type:luminance" maskUnits="userSpaceOnUse" x="0" y="-1" width="100" height="101">
<g id="clip0_627_3743">
<path id="Vector" d="M100 -0.0100098H0V99.99H100V-0.0100098Z" fill="white"/>
</g>
</mask>
<g mask="url(#mask0_140_930)">
<g id="Group">
<path id="Vector_2" d="M15.8156 80.2711L36.3273 23.8727C36.5017 23.3909 36.795 22.9609 37.1799 22.6226C37.5648 22.2844 38.0289 22.0488 38.5292 21.9378C39.0294 21.8268 39.5496 21.8438 40.0415 21.9875C40.5334 22.1311 40.981 22.3966 41.3429 22.7594L77.2335 58.65C77.5953 59.0123 77.8599 59.4599 78.0027 59.9515C78.1456 60.4432 78.162 60.9629 78.0507 61.4626C77.9393 61.9623 77.7036 62.4258 77.3655 62.8102C77.0274 63.1946 76.5977 63.4875 76.1163 63.6618L19.7179 84.1735C19.1733 84.3724 18.5831 84.4116 18.0169 84.2865C17.4507 84.1613 16.9321 83.877 16.5221 83.4669C16.1121 83.0569 15.8278 82.5383 15.7026 81.9721C15.5774 81.4059 15.6166 80.8158 15.8156 80.2711Z" stroke="#146C94" stroke-width="2" stroke-linecap="round" stroke-linejoin="round"/>
<path id="Vector_3" d="M65.625 28.115C65.625 28.115 65.625 18.74 75 18.74C84.375 18.74 84.375 9.36499 84.375 9.36499" stroke="#146C94" stroke-width="2" stroke-linecap="round" stroke-linejoin="round"/>
<path id="Vector_4" d="M56.25 6.23999V15.615" stroke="#146C94" stroke-width="2" stroke-linecap="round" stroke-linejoin="round"/>
<path id="Vector_5" d="M84.375 43.74L90.625 49.99" stroke="#146C94" stroke-width="2" stroke-linecap="round" stroke-linejoin="round"/>
<path id="Vector_6" d="M84.375 31.24L93.75 28.115" stroke="#146C94" stroke-width="2" stroke-linecap="round" stroke-linejoin="round"/>
<path id="Vector_7" d="M30.502 39.8689L60.1192 69.4861" stroke="#146C94" stroke-width="2" stroke-linecap="round" stroke-linejoin="round"/>
<path id="Vector_8" d="M39.4942 76.9861L23.002 60.4939" stroke="#146C94" stroke-width="2" stroke-linecap="round" stroke-linejoin="round"/>
</g>
</g>
</g>
</g>
<defs>
<clipPath id="clip0_140_930">
<rect width="100" height="100" fill="white" transform="translate(0 -0.0100098)"/>
</clipPath>
</defs>
</svg>
