<svg width="100" height="100" viewBox="0 0 100 100" fill="none" xmlns="http://www.w3.org/2000/svg">
<g id="hiring-process2.svg" clip-path="url(#clip0_140_902)">
<g id="Clip path group">
<mask id="mask0_140_902" style="mask-type:luminance" maskUnits="userSpaceOnUse" x="0" y="-1" width="100" height="101">
<g id="clip0_627_3717">
<path id="Vector" d="M100 -0.0100098H0V99.99H100V-0.0100098Z" fill="white"/>
</g>
</mask>
<g mask="url(#mask0_140_902)">
<g id="Group">
<path id="Vector_2" d="M71.875 40.615H90.625V21.865" stroke="#146C94" stroke-width="1.4" stroke-linecap="round" stroke-linejoin="round"/>
<path id="Vector_3" d="M73.5936 74.99C68.6797 79.6269 62.5083 82.7128 55.8505 83.8624C49.1928 85.0119 42.3439 84.1739 36.1596 81.4533C29.9753 78.7326 24.7299 74.2499 21.0788 68.5652C17.4276 62.8804 15.5326 56.2458 15.6306 49.4903C15.7285 42.7347 17.815 36.1578 21.6294 30.5813C25.4439 25.0048 30.817 20.676 37.0775 18.1358C43.3381 15.5955 50.2084 14.9565 56.83 16.2985C63.4516 17.6405 69.531 20.9041 74.3084 25.6814L90.6249 40.615" stroke="#146C94" stroke-width="1.4" stroke-linecap="round" stroke-linejoin="round"/>
</g>
</g>
</g>
</g>
<defs>
<clipPath id="clip0_140_902">
<rect width="100" height="100" fill="white" transform="translate(0 -0.0100098)"/>
</clipPath>
</defs>
</svg>
