<svg width="140" height="161" viewBox="0 0 140 161" fill="none" xmlns="http://www.w3.org/2000/svg">
<g id="Icon">
<rect id="Background" y="160.5" width="160" height="140" rx="23" transform="rotate(-90 0 160.5)" fill="#146C94"/>
<g id="Icon_2">
<path id="Vector" d="M87.7989 90.3633L78.8793 99.0198C77.7366 100.128 76.1971 100.747 74.5836 100.747H51.0839C47.7245 100.747 45 98.0918 45 94.8179V60.4291C45 57.1552 47.7245 54.5 51.0839 54.5H83.5031C86.8625 54.5 89.587 57.1552 89.587 60.4291V86.1614C89.5923 87.7391 88.9469 89.2497 87.7989 90.3633Z" stroke="white" stroke-width="2.5" stroke-miterlimit="10"/>
<path id="Vector_2" d="M93.2057 95.8953L84.2862 104.552C83.1434 105.66 81.604 106.279 79.9904 106.279H56.496C53.1366 106.279 50.4121 103.624 50.4121 100.35V65.9611C50.4121 62.6872 53.1366 60.032 56.496 60.032H88.9152C92.2746 60.032 94.9991 62.6872 94.9991 65.9611V91.6934C94.9991 93.2711 94.3537 94.7817 93.2057 95.8953Z" fill="#9ECEE7"/>
<path id="Rectangle 297" d="M59.0996 74.0492C59.0996 73.4058 59.6212 72.8843 60.2645 72.8843H85.8565C86.4999 72.8843 87.0214 73.4058 87.0214 74.0492C87.0214 74.6926 86.4999 75.2141 85.8565 75.2141H60.2645C59.6212 75.2141 59.0996 74.6926 59.0996 74.0492Z" fill="white"/>
<path id="Rectangle 298" d="M59.0996 79.486C59.0996 78.8426 59.6212 78.321 60.2645 78.321H85.8565C86.4999 78.321 87.0214 78.8426 87.0214 79.486C87.0214 80.1294 86.4999 80.6509 85.8565 80.6509H60.2645C59.6212 80.6509 59.0996 80.1294 59.0996 79.486Z" fill="white"/>
<path id="Rectangle 299" d="M59.0996 84.9223C59.0996 84.2789 59.6212 83.7573 60.2645 83.7573H85.8565C86.4999 83.7573 87.0214 84.2789 87.0214 84.9223C87.0214 85.5656 86.4999 86.0872 85.8565 86.0872H60.2645C59.6212 86.0872 59.0996 85.5656 59.0996 84.9223Z" fill="white"/>
<path id="Rectangle 300" d="M59.0996 90.3585C59.0996 89.7152 59.6212 89.1936 60.2645 89.1936H73.0922C73.7356 89.1936 74.2572 89.7152 74.2572 90.3585C74.2572 91.0019 73.7356 91.5235 73.0922 91.5235H60.2645C59.6212 91.5235 59.0996 91.0019 59.0996 90.3585Z" fill="white"/>
</g>
</g>
</svg>
