<svg width="140" height="160" viewBox="0 0 140 160" fill="none" xmlns="http://www.w3.org/2000/svg">
<g id="Icon">
<rect id="Background" y="160" width="160" height="140" rx="23" transform="rotate(-90 0 160)" fill="#146C94"/>
<g id="Icon_2">
<path id="Vector" d="M96.7194 69.3269C96.7194 54.7385 83.4748 43.0312 67.5785 44.0634C54.2286 44.9258 43.3902 54.9606 42.401 67.3931C41.5312 78.3426 48.1324 87.9462 57.9537 92.2516C59.4268 92.8983 60.3669 94.2768 60.3669 95.7925V101.796V106.33C60.3669 110.708 63.8113 114.549 68.4834 115.032C74.0043 115.601 78.6835 111.59 78.6835 106.559V95.7925C78.6835 94.2768 79.6305 92.8983 81.1037 92.2516C90.3286 88.1945 96.7194 79.4597 96.7194 69.3269Z" stroke="white" stroke-width="2.5" stroke-miterlimit="10"/>
<path id="Vector_2" d="M78.676 101.45H60.3594" stroke="white" stroke-width="2.5" stroke-miterlimit="10"/>
<g id="Pattern">
<path id="Vector_3" d="M69.5193 70.9535C64.1947 70.9535 59.8594 74.9909 59.8594 79.9496V85.1891C62.6865 86.7571 65.9906 87.6652 69.5193 87.6652C73.0479 87.6652 76.352 86.7636 79.1791 85.1891V79.9496C79.1791 74.9909 74.8438 70.9535 69.5193 70.9535Z" fill="#9ECEE7"/>
<path id="Vector_4" d="M55.0968 79.9496C55.0968 72.5411 61.5647 66.5175 69.5199 66.5175C77.4751 66.5175 83.9431 72.5411 83.9431 79.9496V81.4326C86.7351 78.3621 88.4188 74.3965 88.4188 70.065C88.4188 60.3438 79.9585 52.4648 69.5199 52.4648C59.0814 52.4648 50.6211 60.3438 50.6211 70.065C50.6211 74.403 52.3047 78.3686 55.0968 81.4326V79.9496Z" fill="#9ECEE7"/>
</g>
</g>
</g>
</svg>
