<svg width="140" height="161" viewBox="0 0 140 161" fill="none" xmlns="http://www.w3.org/2000/svg">
<g id="Icon">
<rect id="Background" y="160.5" width="160" height="140" rx="23" transform="rotate(-90 0 160.5)" fill="#146C94"/>
<g id="Icon_2">
<path id="Vector" d="M70.162 82.1975C77.6296 82.1975 83.6833 76.6194 83.6833 69.7385C83.6833 62.8576 77.6296 57.2795 70.162 57.2795C62.6943 57.2795 56.6406 62.8576 56.6406 69.7385C56.6406 76.6194 62.6943 82.1975 70.162 82.1975Z" fill="#9ECEE7"/>
<g id="Group">
<path id="Vector_2" d="M93.1919 69.8308C93.1919 71.9215 88.7365 73.3312 88.0722 75.216C87.385 77.1694 90.0651 80.7226 88.7823 82.3487C87.488 83.9907 82.9811 82.7341 81.2 83.9273C79.4362 85.11 79.3503 89.4551 77.2314 90.0886C75.1869 90.7011 72.3579 87.2535 70.0901 87.2535C67.8223 87.2535 64.9933 90.7011 62.9488 90.0886C60.8299 89.4551 60.744 85.11 58.9801 83.9273C57.1991 82.7341 52.6921 83.9907 51.3979 82.3487C50.1151 80.7226 52.7952 77.1694 52.108 75.216C51.4437 73.3312 46.9883 71.9162 46.9883 69.8308C46.9883 67.7453 51.4437 66.3304 52.108 64.4456C52.7952 62.4921 50.1151 58.9389 51.3979 57.3128C52.6921 55.6709 57.1991 56.9274 58.9801 55.7342C60.744 54.5516 60.8299 50.2065 62.9488 49.5729C64.9933 48.9605 67.8223 52.4081 70.0901 52.4081C72.3579 52.4081 75.1869 48.9605 77.2314 49.5729C79.3503 50.2065 79.4362 54.5516 81.2 55.7342C82.9811 56.9274 87.488 55.6709 88.7823 57.3128C90.0651 58.9389 87.385 62.4921 88.0722 64.4456C88.7307 66.3251 93.1919 67.74 93.1919 69.8308Z" stroke="white" stroke-width="2.5" stroke-miterlimit="10"/>
</g>
<path id="Vector_3" d="M69.7266 90.9809L79.4105 111.376C80.0577 112.738 82.062 112.891 82.5603 111.619L84.158 106.725C84.4673 105.927 85.4637 105.616 86.3571 106.038L91.5742 108.757C93.0002 109.428 94.3517 108.24 93.7103 106.883L82.4572 83.1829" stroke="white" stroke-width="2.5" stroke-miterlimit="10"/>
<path id="Vector_4" d="M71.3427 87.5808L60.0438 111.376C59.3966 112.738 57.3923 112.891 56.894 111.619L55.2963 106.725C54.987 105.927 53.9906 105.616 53.0972 106.038L47.8801 108.757C46.4541 109.428 45.1026 108.24 45.744 106.883L57.0028 83.1829" stroke="white" stroke-width="2.5" stroke-miterlimit="10"/>
</g>
</g>
</svg>
