<svg width="140" height="160" viewBox="0 0 140 160" fill="none" xmlns="http://www.w3.org/2000/svg">
<g id="Icon">
<rect id="Background" y="160" width="160" height="140" rx="23" transform="rotate(-90 0 160)" fill="#146C94"/>
<g id="Icon_2">
<path id="Vector" d="M96.7661 108.968C100.112 108.968 102.551 106.079 101.756 103.093C98.8888 92.334 88.3125 84.3447 75.7066 84.3447C63.1007 84.3447 52.5182 92.334 49.6569 103.098C48.8624 106.084 51.3017 108.968 54.6471 108.968H96.7661Z" stroke="white" stroke-width="2.5" stroke-miterlimit="10"/>
<path id="Vector_2" d="M75.7058 78.9653C83.7305 78.9653 90.2358 72.9928 90.2358 65.6252C90.2358 58.2577 83.7305 52.2852 75.7058 52.2852C67.6811 52.2852 61.1758 58.2577 61.1758 65.6252C61.1758 72.9928 67.6811 78.9653 75.7058 78.9653Z" stroke="white" stroke-width="2.5" stroke-miterlimit="10"/>
<path id="Vector_3" d="M44.9442 101.218C47.34 92.226 53.5095 85.1656 64.3403 81.8833C52.1378 82.2594 40.9346 89.411 38.1354 99.9132C37.3409 102.899 39.7802 105.783 43.1256 105.783H45.8442C44.9008 104.506 44.5035 102.876 44.9442 101.218Z" fill="#9ECEE7"/>
<path id="Vector_4" d="M56.8242 62.9701C56.8242 54.7188 64.1109 48.0288 73.0983 48.0288C76.2761 48.0288 79.243 48.8665 81.7443 50.3139C78.9823 46.513 74.2651 44 68.9087 44C60.4055 44 53.5098 50.331 53.5098 58.1436C53.5098 61.8988 55.1111 65.3122 57.7117 67.848C57.1407 66.3151 56.8242 64.6797 56.8242 62.9701Z" fill="#9ECEE7"/>
</g>
</g>
</svg>
