<svg width="83" height="83" viewBox="0 0 83 83" fill="none" xmlns="http://www.w3.org/2000/svg">
<g id="Icon">
<rect id="Rectangle 33" width="83" height="83" rx="20" fill="#146C94"/>
<g id="Iocn">
<path id="Vector" d="M21.0699 31.0158C21.0839 31.0944 21.0952 31.173 21.0999 31.2523C21.1592 32.2695 21.9282 40.3854 31.5962 50.2673C31.5962 50.2673 39.9477 58.7782 48.7374 60.5676C48.7754 60.5755 48.8128 60.584 48.8508 60.5945C49.383 60.7392 53.9075 61.8828 56.2398 59.5439L59.5626 56.2807C59.5926 56.2512 59.6239 56.2224 59.6559 56.1949C59.9874 55.91 62.295 53.778 59.9867 51.5111C57.6504 49.2167 54.7052 46.4192 54.3717 46.1022C54.3557 46.0871 54.3404 46.0721 54.3251 46.0563C54.1443 45.8716 52.4276 44.2106 50.4168 45.7282C50.3587 45.7721 50.304 45.8212 50.252 45.8723L46.9987 49.0758C46.2697 49.7668 45.1119 49.7577 44.3936 49.0555L33.2789 38.1821C32.5326 37.4517 32.552 36.259 33.3216 35.5523L35.9227 33.1655C35.9227 33.1655 38.7726 30.5744 35.712 27.7756L31.1687 23.3138C31.1407 23.2863 31.114 23.2581 31.0874 23.2287C30.7939 22.9038 28.6163 20.6794 26.0613 23.1553C25.9832 23.2306 25.8985 23.2987 25.8085 23.359C24.9415 23.9433 20.3849 27.2077 21.0699 31.0158Z" fill="white"/>
<path id="Ellipse 44" d="M51.6918 38.9644C52.3955 38.9641 52.9749 38.3905 52.8752 37.6939C52.7522 36.8338 52.5049 35.9938 52.1392 35.2006C51.5953 34.0206 50.8022 32.9724 49.8146 32.128C48.827 31.2836 47.6683 30.663 46.4181 30.309C45.5778 30.071 44.7096 29.9573 43.8407 29.9693C43.1371 29.9791 42.6606 30.6406 42.7695 31.3358C42.8785 32.031 43.5338 32.4929 44.2369 32.5224C44.7387 32.5435 45.2378 32.6232 45.7238 32.7608C46.62 33.0146 47.4507 33.4595 48.1586 34.0648C48.8666 34.6701 49.4351 35.4215 49.825 36.2674C50.0365 36.7262 50.1928 37.2069 50.2916 37.6993C50.43 38.3892 50.9881 38.9648 51.6918 38.9644Z" fill="#9ECEE7"/>
<path id="Ellipse 45" d="M56.9551 39.109C57.8027 39.1753 58.553 38.5404 58.5213 37.6908C58.4636 36.1455 58.1377 34.618 57.5541 33.1776C56.7772 31.2602 55.5652 29.5498 54.0137 28.1814C52.4623 26.8129 50.6139 25.824 48.6146 25.2926C47.1125 24.8935 45.5563 24.7608 44.0159 24.8966C43.169 24.9712 42.6327 25.7948 42.8044 26.6275C42.9761 27.4602 43.7916 27.9837 44.6405 27.9384C45.7092 27.8814 46.7834 27.9917 47.8238 28.2682C49.3618 28.6769 50.7837 29.4377 51.9772 30.4903C53.1706 31.543 54.103 32.8588 54.7006 34.3337C55.1048 35.3314 55.3484 36.3835 55.4252 37.4509C55.4863 38.2989 56.1075 39.0426 56.9551 39.109Z" fill="#9ECEE7"/>
</g>
</g>
</svg>
