<svg width="35" height="39" viewBox="0 0 35 39" fill="none" xmlns="http://www.w3.org/2000/svg">
<path id="Vector" d="M16.0417 0.171227C14.8633 0.387707 13.4789 0.855152 11.3517 1.57356L10.2375 1.94713C4.39056 3.92036 1.46806 4.90506 0.735 5.93573C0.0155556 6.94342 0 9.89752 0 15.7597L16.0417 10.4914V0.171227ZM16.0417 13.5183L0 18.7866V19.1717C0 29.9727 8.2425 35.2142 13.4147 37.4403C14.4064 37.8675 15.0481 38.1434 16.0417 38.2679V13.5183ZM18.9583 38.2698V13.5183L35 18.7866V19.1717C35 29.9727 26.7575 35.2142 21.5853 37.4403C20.5936 37.8675 19.9519 38.1453 18.9583 38.2698ZM18.9583 10.4914V0.169312C20.1367 0.385792 21.5211 0.853236 23.6483 1.57164L24.7625 1.94713C30.6094 3.91844 33.5319 4.90314 34.265 5.93382C34.9844 6.9415 35 9.8956 35 15.7559L18.9583 10.4914Z" fill="#146C94"/>
</svg>
