<svg width="44" height="29" viewBox="0 0 44 29" fill="none" xmlns="http://www.w3.org/2000/svg">
<path id="Vector" d="M0 2.53525C0 1.91477 0.243987 1.31971 0.678287 0.880966C1.11259 0.442223 1.70162 0.19574 2.31582 0.19574H8.70052C9.91728 0.195695 11.1221 0.43782 12.2462 0.908282C13.3704 1.37875 14.3917 2.06833 15.252 2.93764L22.0836 9.83918C23.386 11.1541 25.1519 11.8929 26.9931 11.8933H36.0897L28.4706 4.19863C28.0589 3.75571 27.8339 3.16833 27.8433 2.5608C27.8526 1.95326 28.0955 1.37323 28.5207 0.943432C28.9458 0.513635 29.5198 0.267794 30.1212 0.257929C30.7226 0.248064 31.3042 0.474948 31.7429 0.890573L43.322 12.5787C43.7561 13.0175 44 13.6124 44 14.2328C44 14.8531 43.7561 15.4481 43.322 15.8868L31.7429 27.5843C31.3061 28.0105 30.7211 28.2463 30.1139 28.241C29.5067 28.2356 28.9259 27.9896 28.4965 27.5558C28.0672 27.1221 27.8236 26.5353 27.8183 25.9219C27.8131 25.3085 28.0465 24.7175 28.4683 24.2763L36.0943 16.5723H26.9028C25.0926 16.5972 23.3634 17.3351 22.0836 18.6287L15.252 25.5303C14.3915 26.3991 13.3701 27.0883 12.246 27.5584C11.1219 28.0284 9.91712 28.2702 8.70052 28.2698H2.31582C1.70162 28.2698 1.11259 28.0233 0.678287 27.5846C0.243987 27.1458 0 26.5508 0 25.9303C0 25.3098 0.243987 24.7148 0.678287 24.276C1.11259 23.8373 1.70162 23.5908 2.31582 23.5908H8.70052C9.30909 23.591 9.91174 23.47 10.474 23.2348C11.0363 22.9995 11.5471 22.6546 11.9774 22.2198L18.8091 15.3183C19.1981 14.9253 19.6126 14.5626 20.048 14.2328C19.6093 13.9011 19.1945 13.5383 18.8067 13.1472L11.9751 6.2457C11.1073 5.36873 9.93032 4.87564 8.70283 4.87475H2.31582C1.70162 4.87475 1.11259 4.62827 0.678287 4.18953C0.243987 3.75078 0 3.15572 0 2.53525Z" fill="#146C94"/>
</svg>
