<svg width="42" height="42" viewBox="0 0 42 42" fill="none" xmlns="http://www.w3.org/2000/svg">
<path id="Vector" d="M37.5 30.2015V22.4986C37.5 21.7037 37.1839 20.9413 36.6213 20.3793C36.0587 19.8172 35.2956 19.5014 34.5 19.5014H22.5V11.7985C23.914 11.4338 25.1463 10.5663 25.9659 9.35879C26.7855 8.15124 27.1362 6.68649 26.9522 5.23912C26.7682 3.79174 26.0621 2.46109 24.9663 1.4966C23.8706 0.532115 22.4604 0 21 0C19.5396 0 18.1294 0.532115 17.0337 1.4966C15.9379 2.46109 15.2318 3.79174 15.0478 5.23912C14.8638 6.68649 15.2145 8.15124 16.0341 9.35879C16.8537 10.5663 18.086 11.4338 19.5 11.7985V19.5014H7.50001C6.70436 19.5014 5.9413 19.8172 5.37869 20.3793C4.81608 20.9413 4.50001 21.7037 4.50001 22.4986V30.2015C3.08602 30.5662 1.85373 31.4337 1.03411 32.6412C0.214493 33.8488 -0.136175 35.3135 0.0478364 36.7609C0.231848 38.2083 0.937906 39.5389 2.03366 40.5034C3.12942 41.4679 4.53965 42 6.00001 42C7.46037 42 8.8706 41.4679 9.96636 40.5034C11.0621 39.5389 11.7682 38.2083 11.9522 36.7609C12.1362 35.3135 11.7855 33.8488 10.9659 32.6412C10.1463 31.4337 8.914 30.5662 7.50001 30.2015V22.4986H34.5V30.2015C33.086 30.5662 31.8537 31.4337 31.0341 32.6412C30.2145 33.8488 29.8638 35.3135 30.0478 36.7609C30.2318 38.2083 30.9379 39.5389 32.0336 40.5034C33.1294 41.4679 34.5396 42 36 42C37.4603 42 38.8706 41.4679 39.9663 40.5034C41.0621 39.5389 41.7682 38.2083 41.9522 36.7609C42.1362 35.3135 41.7855 33.8488 40.9659 32.6412C40.1463 31.4337 38.914 30.5662 37.5 30.2015ZM9.00001 35.9861C9.00001 36.5789 8.82406 37.1584 8.49442 37.6513C8.16477 38.1442 7.69624 38.5283 7.14806 38.7552C6.59988 38.982 5.99668 39.0414 5.41474 38.9257C4.8328 38.8101 4.29825 38.5246 3.87869 38.1055C3.45913 37.6863 3.17341 37.1522 3.05766 36.5708C2.9419 35.9894 3.00131 35.3868 3.22837 34.8391C3.45544 34.2914 3.83995 33.8233 4.3333 33.494C4.82665 33.1647 5.40667 32.9889 6.00001 32.9889C6.79566 32.9889 7.55872 33.3047 8.12133 33.8667C8.68394 34.4288 9.00001 35.1912 9.00001 35.9861ZM18 6.0139C18 5.4211 18.1759 4.84162 18.5056 4.34873C18.8352 3.85584 19.3038 3.47168 19.8519 3.24483C20.4001 3.01797 21.0033 2.95862 21.5853 3.07427C22.1672 3.18992 22.7018 3.47537 23.1213 3.89454C23.5409 4.31371 23.8266 4.84777 23.9424 5.42917C24.0581 6.01057 23.9987 6.61321 23.7716 7.16088C23.5446 7.70856 23.1601 8.17666 22.6667 8.506C22.1734 8.83533 21.5933 9.01112 21 9.01112C20.2043 9.01112 19.4413 8.69534 18.8787 8.13325C18.3161 7.57117 18 6.80881 18 6.0139ZM36 38.9833C35.4066 38.9833 34.8266 38.8075 34.3333 38.4782C33.8399 38.1489 33.4554 37.6808 33.2284 37.1331C33.0013 36.5854 32.9419 35.9828 33.0576 35.4014C33.1734 34.82 33.4591 34.2859 33.8787 33.8667C34.2982 33.4476 34.8328 33.1621 35.4147 33.0465C35.9967 32.9308 36.5999 32.9902 37.148 33.217C37.6962 33.4439 38.1648 33.828 38.4944 34.3209C38.824 34.8138 39 35.3933 39 35.9861C39 36.781 38.6839 37.5434 38.1213 38.1055C37.5587 38.6675 36.7956 38.9833 36 38.9833Z" fill="#146C94"/>
</svg>
