<svg width="56" height="49" viewBox="0 0 56 49" fill="none" xmlns="http://www.w3.org/2000/svg">
<g id="Group 143725950">
<path id="Vector" d="M12.0089 18.855C10.9605 19.161 9.94905 19.5817 8.99288 20.1094L9.33986 26.1548L3.25445 25.8345C2.72669 26.7907 2.306 27.8021 2 28.8505L6.49733 32.9208L2 36.9244C2.30118 37.9745 2.7221 38.9864 3.25445 39.9404L9.33986 39.7002L9.03292 45.7589C9.98947 46.2824 11.0009 46.6987 12.0489 47L16.1192 42.5027L20.1228 47C21.1724 46.7035 22.1845 46.2871 23.1388 45.7589L22.8319 39.7002L28.8906 40.0071C29.4187 39.0528 29.8352 38.0408 30.1317 36.9911L25.6343 32.9875L30.1317 28.9173C29.8393 27.8469 29.4274 26.8128 28.9039 25.8345L22.8452 26.1415L23.1521 20.0961C22.1982 19.5637 21.1862 19.1428 20.1361 18.8416L16.1326 23.339L12.0089 18.855Z" stroke="#146C94" stroke-width="2.1" stroke-linecap="round" stroke-linejoin="round"/>
<path id="Vector_2" d="M16.0777 38.2189C18.9963 38.2189 21.3624 35.8528 21.3624 32.9342C21.3624 30.0155 18.9963 27.6495 16.0777 27.6495C13.159 27.6495 10.793 30.0155 10.793 32.9342C10.793 35.8528 13.159 38.2189 16.0777 38.2189Z" stroke="#146C94" stroke-width="2.1" stroke-linecap="round" stroke-linejoin="round"/>
<path id="Vector_3" d="M35.9112 2C34.8583 2.29946 33.8422 2.71575 32.8819 3.2411L33.2022 9.29982L27.1434 8.99288C26.6153 9.94722 26.1988 10.9592 25.9023 12.0089L30.3863 16.0125L25.9023 20.0827C26.199 21.1537 26.6153 22.1878 27.1434 23.1655L33.2022 22.8585L32.8819 28.9039C33.8417 29.4339 34.8578 29.8547 35.9112 30.1584L39.9148 25.661L43.9184 30.1584C44.9668 29.8524 45.9782 29.4317 46.9344 28.9039L46.7075 22.8452L52.7529 23.1521C53.2806 22.196 53.7013 21.1845 54.0073 20.1361L49.51 16.0658L54.0073 12.0623C53.7062 11.0122 53.2852 10.0002 52.7529 9.04627L46.7075 9.29982L47.0144 3.2411C46.071 2.71938 45.073 2.30317 44.0385 2L40.0349 6.49733L35.9112 2Z" stroke="#146C94" stroke-width="2.1" stroke-linecap="round" stroke-linejoin="round"/>
<path id="Vector_4" d="M39.9644 21.3505C42.883 21.3505 45.2491 18.9845 45.2491 16.0658C45.2491 13.1472 42.883 10.7811 39.9644 10.7811C37.0457 10.7811 34.6797 13.1472 34.6797 16.0658C34.6797 18.9845 37.0457 21.3505 39.9644 21.3505Z" stroke="#146C94" stroke-width="2.1" stroke-linecap="round" stroke-linejoin="round"/>
</g>
</svg>
