<svg width="36" height="36" viewBox="0 0 36 36" fill="none" xmlns="http://www.w3.org/2000/svg">
<path id="Vector" d="M23.4 21.6C25.7869 21.6 28.0761 22.5482 29.764 24.236C31.4518 25.9239 32.4 28.2131 32.4 30.6V32.4C32.4 33.3548 32.0207 34.2705 31.3456 34.9456C30.6705 35.6207 29.7548 36 28.8 36H3.6C2.64522 36 1.72955 35.6207 1.05442 34.9456C0.379284 34.2705 0 33.3548 0 32.4V30.6C0 28.2131 0.948211 25.9239 2.63604 24.236C4.32387 22.5482 6.61305 21.6 9 21.6H23.4ZM30.6 10.8C31.0774 10.8 31.5352 10.9896 31.8728 11.3272C32.2104 11.6648 32.4 12.1226 32.4 12.6V14.4H34.2C34.6774 14.4 35.1352 14.5896 35.4728 14.9272C35.8104 15.2648 36 15.7226 36 16.2C36 16.6774 35.8104 17.1352 35.4728 17.4728C35.1352 17.8104 34.6774 18 34.2 18H32.4V19.8C32.4 20.2774 32.2104 20.7352 31.8728 21.0728C31.5352 21.4104 31.0774 21.6 30.6 21.6C30.1226 21.6 29.6648 21.4104 29.3272 21.0728C28.9896 20.7352 28.8 20.2774 28.8 19.8V18H27C26.5226 18 26.0648 17.8104 25.7272 17.4728C25.3896 17.1352 25.2 16.6774 25.2 16.2C25.2 15.7226 25.3896 15.2648 25.7272 14.9272C26.0648 14.5896 26.5226 14.4 27 14.4H28.8V12.6C28.8 12.1226 28.9896 11.6648 29.3272 11.3272C29.6648 10.9896 30.1226 10.8 30.6 10.8ZM16.2 0C18.5869 0 20.8761 0.948211 22.564 2.63604C24.2518 4.32387 25.2 6.61305 25.2 9C25.2 11.3869 24.2518 13.6761 22.564 15.364C20.8761 17.0518 18.5869 18 16.2 18C13.8131 18 11.5239 17.0518 9.83604 15.364C8.14821 13.6761 7.2 11.3869 7.2 9C7.2 6.61305 8.14821 4.32387 9.83604 2.63604C11.5239 0.948211 13.8131 0 16.2 0Z" fill="#146C94"/>
</svg>
