<svg width="42" height="28" viewBox="0 0 42 28" fill="none" xmlns="http://www.w3.org/2000/svg">
<path id="Vector" d="M0 0H42V28H0V0ZM21 7C22.8565 7 24.637 7.7375 25.9497 9.05025C27.2625 10.363 28 12.1435 28 14C28 15.8565 27.2625 17.637 25.9497 18.9497C24.637 20.2625 22.8565 21 21 21C19.1435 21 17.363 20.2625 16.0503 18.9497C14.7375 17.637 14 15.8565 14 14C14 12.1435 14.7375 10.363 16.0503 9.05025C17.363 7.7375 19.1435 7 21 7ZM9.33333 4.66667C9.33333 5.90434 8.84167 7.09133 7.9665 7.9665C7.09133 8.84167 5.90434 9.33333 4.66667 9.33333V18.6667C5.90434 18.6667 7.09133 19.1583 7.9665 20.0335C8.84167 20.9087 9.33333 22.0957 9.33333 23.3333H32.6667C32.6667 22.0957 33.1583 20.9087 34.0335 20.0335C34.9087 19.1583 36.0957 18.6667 37.3333 18.6667V9.33333C36.0957 9.33333 34.9087 8.84167 34.0335 7.9665C33.1583 7.09133 32.6667 5.90434 32.6667 4.66667H9.33333Z" fill="#146C94"/>
</svg>
