<svg width="45" height="45" viewBox="0 0 45 45" fill="none" xmlns="http://www.w3.org/2000/svg">
<path id="Vector" d="M35.1562 25.3125C32.3438 25.3125 30.0938 26.4375 28.4063 28.125L19.4062 23.3438C19.6875 22.5 19.6875 21.9375 19.6875 21.0938V19.9688L27.8437 16.3125C29.5312 18.2812 32.0625 19.6875 35.1562 19.6875C40.5 19.6875 45 15.1875 45 9.84375C45 4.5 40.5 0 35.1562 0C29.8125 0 25.3125 4.5 25.3125 9.84375V10.9688L17.1562 14.625C15.4688 12.6562 12.9375 11.25 9.84375 11.25C4.5 11.25 0 15.75 0 21.0938C0 26.4375 4.5 30.9375 9.84375 30.9375C12.6562 30.9375 14.9062 29.8125 16.5938 28.125L25.3125 32.9062V35.1562C25.3125 40.5 29.8125 45 35.1562 45C40.5 45 45 40.5 45 35.1562C45 29.8125 40.5 25.3125 35.1562 25.3125ZM35.1562 2.8125C39.0938 2.8125 42.1875 5.90625 42.1875 9.84375C42.1875 13.7812 39.0938 16.875 35.1562 16.875C31.2188 16.875 28.125 13.7812 28.125 9.84375C28.125 5.90625 31.2188 2.8125 35.1562 2.8125ZM9.84375 28.125C5.90625 28.125 2.8125 25.0312 2.8125 21.0938C2.8125 17.1562 5.90625 14.0625 9.84375 14.0625C13.7812 14.0625 16.875 17.1562 16.875 21.0938C16.875 25.0312 13.7812 28.125 9.84375 28.125ZM35.1562 42.1875C31.2188 42.1875 28.125 39.0938 28.125 35.1562C28.125 31.2188 31.2188 28.125 35.1562 28.125C39.0938 28.125 42.1875 31.2188 42.1875 35.1562C42.1875 39.0938 39.0938 42.1875 35.1562 42.1875Z" fill="#146C94"/>
</svg>
