<svg width="52" height="37" viewBox="0 0 52 37" fill="none" xmlns="http://www.w3.org/2000/svg">
<path id="Vector" fill-rule="evenodd" clip-rule="evenodd" d="M20.0014 11.9318L25.2163 7.18769C26.4156 6.09875 27.8361 5.28515 29.3792 4.80331C30.9223 4.32147 32.5512 4.18291 34.1529 4.39724L41.054 5.31619L50.6294 0.112584C50.7709 0.0355684 50.9299 -0.00315771 51.0907 0.000201318C51.2515 0.00356034 51.4088 0.0488887 51.5469 0.131745C51.6851 0.214602 51.7995 0.332143 51.879 0.47285C51.9584 0.613558 52.0001 0.772604 52 0.934402V18.6334C51.9999 19.2273 51.859 19.8126 51.589 20.3407C51.319 20.8689 50.9276 21.3247 50.4474 21.6704L43.9994 26.3062L37.0166 20.419C38.3786 19.9265 39.6073 19.1205 40.6046 18.0656C40.8165 17.8448 40.9831 17.5842 41.0949 17.2987C41.2067 17.0132 41.2615 16.7084 41.2562 16.4015C41.2508 16.0947 41.1855 15.792 41.0638 15.5106C40.9421 15.2292 40.7665 14.9746 40.547 14.7615C40.3275 14.5483 40.0684 14.3808 39.7845 14.2683C39.5006 14.1559 39.1975 14.1008 38.8924 14.1061C38.5874 14.1115 38.2863 14.1773 38.0065 14.2997C37.7267 14.422 37.4736 14.5986 37.2617 14.8194C36.5746 15.5403 35.776 16.0036 34.84 16.1866C34.0266 16.3472 32.9903 16.3211 31.6866 15.9176L30.03 14.5168L25.4057 18.286C24.5621 18.9578 23.4925 19.2748 22.4215 19.1703C21.3504 19.0658 20.3613 18.548 19.6618 17.7256C18.9624 16.9032 18.607 15.8402 18.6703 14.7599C18.7336 13.6795 19.2107 12.6659 20.0014 11.9318ZM16.8889 8.46524L20.6329 5.06217C19.0233 4.62049 17.3368 4.54014 15.6929 4.82683L8.87714 6.01473L1.39657 1.96541C1.25214 1.8871 1.08995 1.84788 0.925912 1.85158C0.761869 1.85528 0.601596 1.90177 0.460796 1.98651C0.319996 2.07125 0.2035 2.19132 0.122722 2.33496C0.0419448 2.4786 -0.000343122 2.64088 2.09681e-06 2.80591V18.6296C2.09681e-06 19.8922 0.620288 21.0727 1.65657 21.7824L21.918 35.6749C23.1988 36.5527 24.7161 37.015 26.266 36.9996C27.8158 36.9843 29.3238 36.492 30.5871 35.589L39.8951 28.9435L29.978 20.5759L28.3251 21.9132C26.5419 23.3546 24.2706 24.0411 21.9927 23.8273C19.7148 23.6135 17.6091 22.5162 16.1217 20.7679C14.6344 19.0195 13.8823 16.7574 14.0248 14.461C14.1673 12.1645 15.1969 10.0141 16.8889 8.46524Z" fill="#146C94"/>
</svg>
