<svg width="50" height="45" viewBox="0 0 50 45" fill="none" xmlns="http://www.w3.org/2000/svg">
<path id="Vector" d="M14.375 4.21875H25.625C25.9688 4.21875 26.25 4.53516 26.25 4.92188V8.4375H13.75V4.92188C13.75 4.53516 14.0312 4.21875 14.375 4.21875ZM10 4.92188V8.4375H5C2.24219 8.4375 0 10.96 0 14.0625V22.5H28.1406C30.6641 19.0635 34.4766 16.875 38.75 16.875C39.1719 16.875 39.5859 16.8926 40 16.9365V14.0625C40 10.96 37.7578 8.4375 35 8.4375H30V4.92188C30 2.20605 28.0391 0 25.625 0H14.375C11.9609 0 10 2.20605 10 4.92188ZM25 30.9375H17.5C16.1172 30.9375 15 29.6807 15 28.125V25.3125H0V36.5625C0 39.665 2.24219 42.1875 5 42.1875H28.1406C26.1797 39.5156 25 36.0791 25 32.3438C25 31.8691 25.0156 31.4033 25.0547 30.9375H25ZM50 32.3438C50 28.9871 48.8147 25.7679 46.7049 23.3944C44.5952 21.0209 41.7337 19.6875 38.75 19.6875C35.7663 19.6875 32.9048 21.0209 30.795 23.3944C28.6853 25.7679 27.5 28.9871 27.5 32.3438C27.5 35.7004 28.6853 38.9196 30.795 41.2931C32.9048 43.6666 35.7663 45 38.75 45C41.7337 45 44.5952 43.6666 46.7049 41.2931C48.8147 38.9196 50 35.7004 50 32.3438ZM38.75 25.3125C39.4375 25.3125 40 25.9453 40 26.7188V30.9375H42.5C43.1875 30.9375 43.75 31.5703 43.75 32.3438C43.75 33.1172 43.1875 33.75 42.5 33.75H38.75C38.0625 33.75 37.5 33.1172 37.5 32.3438V26.7188C37.5 25.9453 38.0625 25.3125 38.75 25.3125Z" fill="#146C94"/>
</svg>
