<svg width="50" height="50" viewBox="0 0 50 50" fill="none" xmlns="http://www.w3.org/2000/svg">
<g id="Group 143725944">
<circle id="Ellipse 46" cx="25" cy="25" r="25" fill="#146C94"/>
<path id="Vector" d="M21.778 27.3192L21.5457 27.9841H22.25H27.5682H28.2739L28.0399 27.3184C27.5925 26.0451 27.5593 24.6616 27.9453 23.3681C28.3312 22.0746 29.116 20.9388 30.1855 20.1246C31.2549 19.3105 32.5537 18.8602 33.8938 18.8383C35.234 18.8164 36.5466 19.224 37.6417 20.0027C38.7369 20.7814 39.5579 21.891 39.9853 23.1711C40.4128 24.4513 40.4243 25.8352 40.0183 27.1224C39.6122 28.4096 38.8098 29.5328 37.7277 30.3299C36.6457 31.127 35.34 31.5568 33.9997 31.5575H15.8182C14.5692 31.5575 13.3481 31.1848 12.3092 30.4864C11.2702 29.7879 10.4599 28.7948 9.98136 27.6323C9.50276 26.4698 9.37749 25.1904 9.62152 23.9561C9.86554 22.7218 10.4678 21.5884 11.3516 20.6992C12.2354 19.8099 13.3611 19.2047 14.5861 18.9595C15.8111 18.7144 17.0809 18.8402 18.235 19.3211C19.3892 19.8021 20.3762 20.6169 21.0708 21.6628C21.7654 22.7088 22.1364 23.9389 22.1364 25.1974C22.1364 25.9408 22.0098 26.6557 21.778 27.3192ZM17.7799 27.1668C18.2995 26.644 18.5909 25.9355 18.5909 25.1974C18.5909 24.4594 18.2995 23.7509 17.7799 23.2281C17.2601 22.7051 16.5545 22.4108 15.8182 22.4108C15.0818 22.4108 14.3762 22.7051 13.8565 23.2281C13.3368 23.7509 13.0455 24.4594 13.0455 25.1974C13.0455 25.9355 13.3368 26.644 13.8565 27.1668C14.3762 27.6898 15.0818 27.9841 15.8182 27.9841C16.5545 27.9841 17.2601 27.6898 17.7799 27.1668ZM35.9617 27.1668C36.4813 26.644 36.7727 25.9355 36.7727 25.1974C36.7727 24.4594 36.4813 23.7509 35.9617 23.2281C35.4419 22.7051 34.7364 22.4108 34 22.4108C33.2636 22.4108 32.5581 22.7051 32.0383 23.2281C31.5187 23.7509 31.2273 24.4594 31.2273 25.1974C31.2273 25.9355 31.5187 26.644 32.0383 27.1668C32.5581 27.6898 33.2636 27.9841 34 27.9841C34.7364 27.9841 35.4419 27.6898 35.9617 27.1668Z" fill="white" stroke="#146C94"/>
</g>
</svg>
