<svg width="39" height="48" viewBox="0 0 39 48" fill="none" xmlns="http://www.w3.org/2000/svg">
<path id="Vector" fill-rule="evenodd" clip-rule="evenodd" d="M19.5 0.44043C16.8503 0.44043 14.3091 1.48493 12.4354 3.34415C10.5618 5.20336 9.50922 7.725 9.50922 10.3543V21.8802C9.50922 23.1821 9.76764 24.4712 10.2697 25.6741C10.7718 26.8769 11.5077 27.9698 12.4354 28.8904C13.3632 29.811 14.4646 30.5412 15.6767 31.0394C16.8888 31.5376 18.188 31.7941 19.5 31.7941C20.812 31.7941 22.1112 31.5376 23.3233 31.0394C24.5354 30.5412 25.6368 29.811 26.5645 28.8904C27.4923 27.9698 28.2282 26.8769 28.7303 25.6741C29.2324 24.4712 29.4908 23.1821 29.4908 21.8802V10.3543C29.4908 7.725 28.4382 5.20336 26.5645 3.34415C24.6909 1.48493 22.1497 0.44043 19.5 0.44043ZM16.9565 40.8499V44.9285C16.9565 45.5979 17.2245 46.2398 17.7015 46.7132C18.1785 47.1865 18.8254 47.4524 19.5 47.4524C20.1746 47.4524 20.8215 47.1865 21.2985 46.7132C21.7755 46.2398 22.0435 45.5979 22.0435 44.9285V40.8465C26.6135 40.6303 30.9242 38.6767 34.0814 35.3909C37.2386 32.1051 39 27.7393 39 23.1993C39 22.53 38.732 21.888 38.255 21.4147C37.778 20.9413 37.1311 20.6754 36.4565 20.6754C35.7819 20.6754 35.135 20.9413 34.658 21.4147C34.181 21.888 33.913 22.53 33.913 23.1993C33.913 26.5462 32.5732 29.7561 30.1882 32.1227C27.8032 34.4893 24.5685 35.8189 21.1957 35.8189H17.8043C14.4315 35.8189 11.1968 34.4893 8.81179 32.1227C6.42682 29.7561 5.08696 26.5462 5.08696 23.1993C5.08696 22.8679 5.02117 22.5397 4.89335 22.2335C4.76552 21.9273 4.57817 21.649 4.34199 21.4147C4.10581 21.1803 3.82541 20.9944 3.51683 20.8675C3.20824 20.7407 2.87749 20.6754 2.54348 20.6754C2.20946 20.6754 1.87872 20.7407 1.57013 20.8675C1.26154 20.9944 0.981152 21.1803 0.744968 21.4147C0.508784 21.649 0.321433 21.9273 0.193611 22.2335C0.0657895 22.5397 2.90434e-07 22.8679 2.95412e-07 23.1993C-0.00083272 27.7399 1.7601 32.1065 4.91739 35.393C8.07468 38.6795 12.3859 40.6336 16.9565 40.8499Z" fill="#146C94"/>
</svg>
