<svg width="45" height="46" viewBox="0 0 45 46" fill="none" xmlns="http://www.w3.org/2000/svg">
<path id="Vector" d="M1.87516 19.0653C1.37783 19.0653 0.900881 18.8665 0.549221 18.5127C0.197561 18.1589 0 17.679 0 17.1786V2.08911C0 1.58874 0.197561 1.10886 0.549221 0.755044C0.900881 0.401227 1.37783 0.202454 1.87516 0.202454H16.8764C17.3737 0.202454 17.8507 0.401227 18.2023 0.755044C18.554 1.10886 18.7516 1.58874 18.7516 2.08911V17.1786C18.7516 17.679 18.554 18.1589 18.2023 18.5127C17.8507 18.8665 17.3737 19.0653 16.8764 19.0653H1.87516ZM28.1273 19.0653C27.63 19.0653 27.1531 18.8665 26.8014 18.5127C26.4497 18.1589 26.2522 17.679 26.2522 17.1786V2.08911C26.2522 1.58874 26.4497 1.10886 26.8014 0.755044C27.1531 0.401227 27.63 0.202454 28.1273 0.202454H43.1248C43.6222 0.202454 44.0991 0.401227 44.4508 0.755044C44.8024 1.10886 45 1.58874 45 2.08911V17.1786C45 17.679 44.8024 18.1589 44.4508 18.5127C44.0991 18.8665 43.6222 19.0653 43.1248 19.0653H28.1273ZM1.87516 45.4785C1.37783 45.4785 0.900881 45.2798 0.549221 44.9259C0.197561 44.5721 0 44.0922 0 43.5919V28.4986C0 27.9982 0.197561 27.5183 0.549221 27.1645C0.900881 26.8107 1.37783 26.6119 1.87516 26.6119H16.8764C17.3737 26.6119 17.8507 26.8107 18.2023 27.1645C18.554 27.5183 18.7516 27.9982 18.7516 28.4986V43.5919C18.7516 44.0922 18.554 44.5721 18.2023 44.9259C17.8507 45.2798 17.3737 45.4785 16.8764 45.4785H1.87516ZM28.1273 45.4785C27.63 45.4785 27.1531 45.2798 26.8014 44.9259C26.4497 44.5721 26.2522 44.0922 26.2522 43.5919V28.4986C26.2522 27.9982 26.4497 27.5183 26.8014 27.1645C27.1531 26.8107 27.63 26.6119 28.1273 26.6119H43.1248C43.6222 26.6119 44.0991 26.8107 44.4508 27.1645C44.8024 27.5183 45 27.9982 45 28.4986V43.5919C45 44.0922 44.8024 44.5721 44.4508 44.9259C44.0991 45.2798 43.6222 45.4785 43.1248 45.4785H28.1273Z" fill="#146C94"/>
</svg>
