<svg width="50" height="51" viewBox="0 0 50 51" fill="none" xmlns="http://www.w3.org/2000/svg">
<g id="Group 143725943">
<g id="Group 143725942">
<path id="Vector" d="M23.8281 29.743C26.5595 29.743 28.4933 28.6165 29.5978 27.0973C29.5094 29.0257 29.1358 30.7153 28.4511 31.9872C27.6066 33.5563 26.2947 34.4913 24.3781 34.4913C22.3142 34.4913 21.1925 33.4459 20.9599 32.6072L20.8584 32.2407H20.4781H16.4312H15.8768L15.9339 32.7922C16.2592 35.935 19.1189 38.8609 24.3031 38.8609C27.7209 38.8609 30.326 37.6625 32.0545 35.2565C33.7611 32.8811 34.5625 29.3972 34.5625 24.92C34.5625 19.933 33.4075 16.6551 31.5629 14.6218C29.7109 12.5802 27.237 11.8731 24.7812 11.8731C22.1315 11.8731 19.7615 12.7031 18.0482 14.266C16.3294 15.8338 15.3094 18.1056 15.3094 20.9065C15.3094 23.6926 16.2684 25.9113 17.8357 27.4332C19.3992 28.9515 21.5337 29.743 23.8281 29.743ZM27.6751 24.3389C26.9241 25.0436 25.8989 25.4197 24.7874 25.444L24.7836 25.4421H24.6656C23.4719 25.4421 22.3999 25.057 21.6298 24.321C20.8648 23.5898 20.3531 22.4697 20.3531 20.9096C20.3531 19.3907 20.8453 18.2247 21.6012 17.4414C22.3578 16.6574 23.4097 16.2239 24.5938 16.2239C25.8712 16.2239 26.9545 16.6587 27.7185 17.4427C28.4823 18.2266 28.9688 19.403 28.9688 20.9628C28.9688 22.5084 28.4457 23.6158 27.6751 24.3389ZM49.5 25.4014C49.5 31.9009 46.9187 38.1342 42.3241 42.73C37.7294 47.3259 31.4978 49.9077 25 49.9077C18.5022 49.9077 12.2706 47.3259 7.67593 42.73C3.08127 38.1342 0.5 31.9009 0.5 25.4014C0.5 18.9018 3.08127 12.6685 7.67593 8.07272C12.2706 3.4769 18.5022 0.89502 25 0.89502C31.4978 0.89502 37.7294 3.4769 42.3241 8.07272C46.9187 12.6685 49.5 18.9018 49.5 25.4014Z" fill="#146C94" stroke="#146C94"/>
</g>
</g>
</svg>
