<svg width="36" height="36" viewBox="0 0 36 36" fill="none" xmlns="http://www.w3.org/2000/svg">
<g id="Mask group">
<mask id="mask0_245_536" style="mask-type:luminance" maskUnits="userSpaceOnUse" x="0" y="0" width="36" height="36">
<g id="Group">
<g id="Group_2">
<path id="Vector" d="M33 0H3C1.34315 0 0 1.34315 0 3V33C0 34.6569 1.34315 36 3 36H33C34.6569 36 36 34.6569 36 33V3C36 1.34315 34.6569 0 33 0Z" fill="white"/>
<path id="Vector_2" d="M29 6H24.414C23.524 6 23.077 7.077 23.707 7.707L28.293 12.293C28.923 12.923 30 12.477 30 11.586V7C30 6.73478 29.8946 6.48043 29.7071 6.29289C29.5196 6.10536 29.2652 6 29 6ZM6 7V11.586C6 12.476 7.077 12.923 7.707 12.293L12.293 7.707C12.923 7.077 12.477 6 11.586 6H7C6.73478 6 6.48043 6.10536 6.29289 6.29289C6.10536 6.48043 6 6.73478 6 7ZM7 30H11.586C12.476 30 12.923 28.923 12.293 28.293L7.707 23.707C7.077 23.077 6 23.523 6 24.414V29C6 29.2652 6.10536 29.5196 6.29289 29.7071C6.48043 29.8946 6.73478 30 7 30ZM30 29V24.414C30 23.524 28.923 23.077 28.293 23.707L23.707 28.293C23.077 28.923 23.523 30 24.414 30H29C29.2652 30 29.5196 29.8946 29.7071 29.7071C29.8946 29.5196 30 29.2652 30 29Z" fill="black"/>
</g>
</g>
</mask>
<g mask="url(#mask0_245_536)">
<path id="Vector_3" d="M-6 -6H42V42H-6V-6Z" fill="#146C94"/>
</g>
</g>
</svg>
