<svg width="35" height="38" viewBox="0 0 35 38" fill="none" xmlns="http://www.w3.org/2000/svg">
<path id="Vector" d="M16.0417 0.00191056C14.8633 0.21782 13.4789 0.684031 11.3517 1.40054L10.2375 1.77313C4.39056 3.74115 1.46806 4.72325 0.735 5.75121C0.0155556 6.75623 0 9.70254 0 15.5493L16.0417 10.2949V0.00191056ZM16.0417 13.3138L0 18.5682V18.9522C0 29.7248 8.2425 34.9524 13.4147 37.1727C14.4064 37.5988 15.0481 37.8739 16.0417 37.9981V13.3138ZM18.9583 38V13.3138L35 18.5682V18.9522C35 29.7248 26.7575 34.9524 21.5853 37.1727C20.5936 37.5988 19.9519 37.8758 18.9583 38ZM18.9583 10.2949V0C20.1367 0.215909 21.5211 0.68212 23.6483 1.39863L24.7625 1.77313C30.6094 3.73924 33.5319 4.72134 34.265 5.7493C34.9844 6.75432 35 9.70062 35 15.5455L18.9583 10.2949Z" fill="#146C94"/>
</svg>
