<svg width="36" height="36" viewBox="0 0 36 36" fill="none" xmlns="http://www.w3.org/2000/svg">
<g id="Group 143725946">
<g id="Group">
<g id="Vector">
<path d="M6.36021 1C5.07483 1.34426 3.90274 2.02087 2.96181 2.96181C2.02087 3.90274 1.34426 5.07483 1 6.36021M29.2297 1C30.5151 1.34426 31.6872 2.02087 32.6281 2.96181C33.569 3.90274 34.2456 5.07483 34.5899 6.36021" fill="#146C94"/>
<path d="M6.36021 1C5.07483 1.34426 3.90274 2.02087 2.96181 2.96181C2.02087 3.90274 1.34426 5.07483 1 6.36021M29.2297 1C30.5151 1.34426 31.6872 2.02087 32.6281 2.96181C33.569 3.90274 34.2456 5.07483 34.5899 6.36021" stroke="#146C94" stroke-width="2" stroke-linecap="round"/>
</g>
</g>
<path id="Vector_2" fill-rule="evenodd" clip-rule="evenodd" d="M17.947 36C21.9671 36 25.8226 34.403 28.6652 31.5604C31.5079 28.7177 33.1049 24.8622 33.1049 20.8421C33.1049 16.822 31.5079 12.9665 28.6652 10.1238C25.8226 7.28119 21.9671 5.6842 17.947 5.6842C13.9268 5.6842 10.0714 7.28119 7.22871 10.1238C4.38605 12.9665 2.78906 16.822 2.78906 20.8421C2.78906 24.8622 4.38605 28.7177 7.22871 31.5604C10.0714 34.403 13.9268 36 17.947 36ZM19.8417 13.2632C19.8417 12.7606 19.6421 12.2787 19.2867 11.9234C18.9314 11.568 18.4495 11.3684 17.947 11.3684C17.4444 11.3684 16.9625 11.568 16.6072 11.9234C16.2518 12.2787 16.0522 12.7606 16.0522 13.2632V20.3684C16.0522 21.6758 17.1133 22.7368 18.4206 22.7368H23.6312C24.1337 22.7368 24.6156 22.5372 24.9709 22.1819C25.3263 21.8265 25.5259 21.3446 25.5259 20.8421C25.5259 20.3396 25.3263 19.8577 24.9709 19.5023C24.6156 19.147 24.1337 18.9474 23.6312 18.9474H19.8417V13.2632Z" fill="#146C94"/>
</g>
</svg>
