<svg width="42" height="29" viewBox="0 0 42 29" fill="none" xmlns="http://www.w3.org/2000/svg">
<path id="Vector" d="M0 0.19574H42V28.2698H0V0.19574ZM21 7.21426C22.8565 7.21426 24.637 7.95371 25.9497 9.26993C27.2625 10.5862 28 12.3714 28 14.2328C28 16.0942 27.2625 17.8794 25.9497 19.1956C24.637 20.5118 22.8565 21.2513 21 21.2513C19.1435 21.2513 17.363 20.5118 16.0503 19.1956C14.7375 17.8794 14 16.0942 14 14.2328C14 12.3714 14.7375 10.5862 16.0503 9.26993C17.363 7.95371 19.1435 7.21426 21 7.21426ZM9.33333 4.87475C9.33333 6.1157 8.84167 7.30583 7.9665 8.18331C7.09133 9.0608 5.90434 9.55376 4.66667 9.55376V18.9118C5.90434 18.9118 7.09133 19.4048 7.9665 20.2822C8.84167 21.1597 9.33333 22.3498 9.33333 23.5908H32.6667C32.6667 22.3498 33.1583 21.1597 34.0335 20.2822C34.9087 19.4048 36.0957 18.9118 37.3333 18.9118V9.55376C36.0957 9.55376 34.9087 9.0608 34.0335 8.18331C33.1583 7.30583 32.6667 6.1157 32.6667 4.87475H9.33333Z" fill="#146C94"/>
</svg>
